<svg width="70" height="23" viewBox="0 0 70 23" fill="none" xmlns="http://www.w3.org/2000/svg">
<rect y="2" width="70" height="18" fill="#797979"/>
<path d="M12.455 5.945H15.8C18.26 5.945 20.015 6.8 20.015 9.29C20.015 11.705 18.26 12.815 15.86 12.815H14.195V17H12.455V5.945ZM14.195 11.42H15.695C17.465 11.42 18.305 10.745 18.305 9.29C18.305 7.835 17.39 7.355 15.635 7.355H14.195V11.42ZM22.0169 8.75H23.4269L23.5619 10.235H23.6069C24.1919 9.17 25.0619 8.54 25.9469 8.54C26.3519 8.54 26.6219 8.6 26.8769 8.72L26.5619 10.22C26.2769 10.13 26.0669 10.085 25.7369 10.085C25.0619 10.085 24.2519 10.55 23.7419 11.855V17H22.0169V8.75ZM31.2935 17.195C29.2535 17.195 27.4085 15.62 27.4085 12.875C27.4085 10.13 29.2535 8.54 31.2935 8.54C33.3335 8.54 35.1785 10.13 35.1785 12.875C35.1785 15.62 33.3335 17.195 31.2935 17.195ZM29.1935 12.875C29.1935 14.63 30.0035 15.785 31.2935 15.785C32.5985 15.785 33.4085 14.63 33.4085 12.875C33.4085 11.135 32.5985 9.965 31.2935 9.965C30.0035 9.965 29.1935 11.135 29.1935 12.875ZM37.4484 10.13H36.3234V8.84L37.4484 8.75V7.715C37.4484 6.02 38.2134 4.85 40.0584 4.85C40.6134 4.85 41.1384 4.97 41.5134 5.12L41.1684 6.425C40.8684 6.29 40.5534 6.215 40.2684 6.215C39.5334 6.215 39.1734 6.695 39.1734 7.7V8.75H40.8384V10.13H39.1734V17H37.4484V10.13ZM42.1284 6.17C42.1284 5.555 42.5784 5.15 43.2084 5.15C43.8384 5.15 44.2884 5.555 44.2884 6.17C44.2884 6.8 43.8384 7.205 43.2084 7.205C42.5784 7.205 42.1284 6.8 42.1284 6.17ZM42.3384 17V8.75H44.0634V17H42.3384ZM48.3656 17.195C47.1206 17.195 46.6556 16.4 46.6556 15.065V5.045H48.3806V15.155C48.3806 15.62 48.5756 15.785 48.7856 15.785C48.8606 15.785 48.9206 15.785 49.0706 15.755L49.2956 17.06C49.0856 17.135 48.8006 17.195 48.3656 17.195ZM54.5584 17.195C52.3234 17.195 50.5384 15.605 50.5384 12.875C50.5384 10.205 52.3834 8.54 54.3034 8.54C56.4934 8.54 57.6784 10.115 57.6784 12.44C57.6784 12.785 57.6334 13.115 57.5884 13.325H52.2334C52.3684 14.9 53.3584 15.845 54.7834 15.845C55.5184 15.845 56.1484 15.62 56.7484 15.23L57.3484 16.325C56.5834 16.835 55.6384 17.195 54.5584 17.195ZM52.2184 12.125H56.1784C56.1784 10.715 55.5334 9.89 54.3334 9.89C53.2984 9.89 52.3834 10.685 52.2184 12.125Z" fill="white"/>
</svg>
